<?xml version="1.0" encoding="UTF-8"?>
<svg width="325px" height="85px" viewBox="0 0 325 85" version="1.1" xmlns="http://www.w3.org/2000/svg" xmlns:xlink="http://www.w3.org/1999/xlink">
    <!-- Generator: Sketch 60.1 (88133) - https://sketch.com -->
    <title>logo备份 2</title>
    <desc>Created with Sketch.</desc>
    <g id="君从何处来" stroke="none" stroke-width="1" fill="none" fill-rule="evenodd">
        <g id="君从何处来首页" transform="translate(-241.000000, -902.000000)">
            <g id="编组-12" transform="translate(241.000000, 902.000000)">
                <g id="logo备份-2">
                    <g id="分组-6">
                        <path d="M26.329781,34.3535259 C16.3651964,51.6854324 17.5919283,68.2260189 30.0099766,83.9752855 C30.2864894,83.8720267 37.3169396,83.9752855 41.6088985,83.9752855 C20.8351791,67.492275 24.9461418,45.1429044 31.3177796,34.3535259 C31.4340649,34.3956513 29.7713987,34.3956513 26.329781,34.3535259 Z" id="路径-2" fill="#FFFFFF"></path>
                        <path d="M15.538819,45.8047012 C16.2257872,47.2846906 17.7885304,48.9845771 20.2270487,50.9043606 C21.17867,51.5296859 21.8131222,51.7269455 22.1304053,51.4961393 L19.7787377,55.3116013 C16.7235156,53.2994079 14.2547811,50.1304412 12.3725342,45.8047012 C12.3725342,45.8047012 13.4279625,45.8047012 15.538819,45.8047012 Z" id="路径-3" fill="#FFFFFF"></path>
                        <path d="M26.6856069,64.0545954 C30.6085166,62.4016295 33.2885222,60.2284752 34.7256237,57.5351326 C34.7256237,57.5351326 35.5893956,57.725227 37.3169396,58.1054158 C35.5893956,62.4706662 32.3160094,66.1989499 27.4967808,69.2902669 C26.7145425,69.3355083 26.4441512,67.5902845 26.6856069,64.0545954 Z" id="路径-4" fill="#FFFFFF"></path>
                        <rect id="矩形" stroke="#FFFFFF" stroke-width="4.47517195" x="2.23758598" y="27.9040133" width="15.6631018" height="15.6631018"></rect>
                        <rect id="矩形-copy-7" stroke="#FFFFFF" stroke-width="3.29056761" x="9.41102337" y="11.6486093" width="9.08196661" height="9.08196661"></rect>
                        <rect id="矩形-copy-8" stroke="#FFFFFF" stroke-width="3.55381302" x="25.0741252" y="20.5989533" width="12.2409115" height="12.2409115"></rect>
                        <rect id="矩形-copy-9" stroke="#FFFFFF" stroke-width="4.47517195" x="44.6200968" y="17.9006878" width="14.4784975" height="14.4784975"></rect>
                        <rect id="矩形-copy-10" stroke="#FFFFFF" stroke-width="4.73841736" x="33.6954123" y="40.2765476" width="15.5314791" height="15.5314791"></rect>
                        <rect id="矩形-copy-11" stroke="#FFFFFF" stroke-width="3.55381302" x="25.0741252" y="1.77690651" width="12.2409115" height="12.2409115"></rect>
                    </g>
                    <g id="编组-21" transform="translate(58.440481, 43.567115)" fill="#FFFFFF" fill-rule="nonzero" stroke="#FFFFFF">
                        <path d="M3.4980808,27.1108509 L3.4980808,4.06636414 L-0.263245409,4.06636414 L-0.263245409,0.238264753 L21.7068892,0.238264753 L21.7068892,7.91127538 L17.1976193,7.91127538 L17.1976193,4.44249676 L8.96641778,4.44249676 L8.96641778,13.9253129 L19.3936499,13.9253129 L19.3936499,17.9623749 L8.96641778,17.9623749 L8.96641778,27.1108509 L13.0620841,27.1108509 L13.0620841,30.9807428 L-0.263245409,30.9807428 L-0.263245409,27.1108509 L3.4980808,27.1108509 Z" id="FamilySearch" stroke-width="0.526490818"></path>
                        <path d="M35.228445,28.0052198 C35.1317261,28.1371659 35.0216905,28.2828093 34.8981262,28.4425907 C34.4789731,28.984599 34.0122551,29.4657889 33.498192,29.8857278 C32.9741935,30.3137829 32.2691936,30.698989 31.3827055,31.0449356 C30.4870943,31.3944424 29.5236085,31.5689606 28.4943254,31.5689606 C27.1963802,31.5689606 25.9955087,31.3302331 24.8944885,30.8521586 C23.7788176,30.3677225 22.8466628,29.5897035 22.1019749,28.5237777 C21.3514034,27.4494303 20.9769563,26.1645629 20.9769563,24.6784792 C20.9769563,23.6990366 21.1607167,22.805961 21.5293289,22.0023865 C21.8954907,21.2041537 22.3670881,20.5409699 22.9442772,20.0155798 C23.5130719,19.4978308 24.2058704,19.0480558 25.0216421,18.6654373 C25.8258492,18.2882428 26.6033379,17.9993594 27.3542788,17.7991085 C28.1006226,17.6000834 28.9231138,17.4440937 29.8218994,17.3308609 C30.7143872,17.2184215 31.4609152,17.1479943 32.0625655,17.1196814 C32.6598828,17.0915723 33.281472,17.0775251 33.9273521,17.0775251 L34.9565521,17.0775251 L34.9565521,16.5916279 C34.9565521,13.6946457 33.5645182,12.3026119 30.6675361,12.3026119 C29.6870375,12.3026119 28.6986222,12.4707097 27.7011062,12.8077083 C26.6945896,13.1477477 25.9383374,13.4853603 25.4362606,13.815674 L24.3485868,14.5312489 L22.3677614,11.0400442 L22.5789903,10.8640202 C22.6683664,10.7895401 22.7948431,10.6919724 22.9597434,10.5700895 C23.1375221,10.4386879 23.5017423,10.2280115 24.0665726,9.92772198 C24.6293454,9.62852631 25.2133823,9.36499745 25.8185975,9.13715175 C26.428765,8.9074416 27.2006433,8.69757608 28.1358361,8.50628665 C29.0770227,8.31377121 30.032482,8.21751225 31.0018762,8.21751225 C33.8404656,8.21751225 36.0200667,8.95249401 37.5226149,10.4331604 C39.0262816,11.9149291 39.7730207,14.0717726 39.7730207,16.8841754 L39.7730207,26.5591423 C39.7730207,27.004297 39.9391408,27.1704171 40.3842955,27.1704171 L42.8865629,27.1704171 L42.8865629,31.0465542 L38.2528773,31.0465542 C36.2830456,31.0465542 35.2282034,30.1225451 35.2282034,28.3562204 L35.2282034,28.0636728 C35.2282034,28.044151 35.2282839,28.0246667 35.228445,28.0052198 Z M34.9983446,20.4312557 L34.2616923,20.4312557 C33.8598508,20.4312557 33.4894231,20.4347177 33.1504566,20.4416354 C32.8193225,20.4483932 32.3394415,20.4826704 31.7133906,20.5445875 C31.0892497,20.6063158 30.531603,20.6850021 30.0407666,20.7804425 C29.5572176,20.874466 29.0269075,21.0264656 28.4503483,21.2367402 C27.8857688,21.4426456 27.421977,21.6794755 27.058804,21.94537 C26.7066535,22.2031945 26.4097957,22.5411071 26.1674613,22.9620037 C25.9321088,23.3707739 25.8143212,23.8295255 25.8143212,24.3441391 C25.8143212,25.2752244 26.1324903,26.0596214 26.7754735,26.715337 C27.4137886,27.366292 28.2792556,27.6928235 29.3928644,27.6928235 C30.4894886,27.6928235 31.4664515,27.3552682 32.3350558,26.6760589 C33.2189107,25.9849242 33.881561,25.1367318 34.3262738,24.1278311 C34.7746982,23.1105101 34.9983446,22.0690524 34.9983446,21.000738 L34.9983446,20.4312557 Z" id="形状结合" stroke-width="0.658113522"></path>
                        <path d="M50.6019467,12.4123244 C51.2070748,11.4869631 52.0292079,10.6427597 53.0660759,9.88006352 C54.570205,8.77366092 56.1913965,8.21751225 57.9209199,8.21751225 C61.3135821,8.21751225 63.489668,9.76634038 64.3836545,12.8130996 C65.0416885,11.635634 65.9882784,10.6173895 67.2198303,9.76013281 C68.6956727,8.73283072 70.3214662,8.21751225 72.088582,8.21751225 C76.991733,8.21751225 79.4805735,11.1407954 79.4805735,16.8423829 L79.4805735,27.1704171 L82.9075596,27.1704171 L82.9075596,31.0465542 L74.6641049,31.0465542 L74.6641049,17.740922 C74.6641049,16.9217988 74.6165359,16.2252519 74.5222057,15.6525327 C74.4298405,15.0917444 74.2618886,14.5615433 74.0181754,14.0609431 C73.7913599,13.595052 73.4517994,13.2463961 72.9920317,13.0073169 C72.5203553,12.7620451 71.9205496,12.636952 71.190043,12.636952 C69.9569889,12.636952 68.8821769,13.0212787 67.9524668,13.7938547 C67.0074748,14.5791298 66.3057764,15.5734796 65.8450781,16.7819781 C65.3790404,18.0044828 65.1457414,19.3265102 65.1457414,20.7499829 L65.1457414,27.1704171 L68.530935,27.1704171 L68.530935,31.0465542 L60.3292728,31.0465542 L60.3292728,17.740922 C60.3292728,17.1092797 60.3087371,16.5650831 60.2678956,16.1090199 C60.2281929,15.6656735 60.1351675,15.2038688 59.9883992,14.7235362 C59.8471704,14.2613329 59.6577798,13.8888645 59.4225153,13.6040707 C59.1933725,13.3266874 58.8672612,13.0959482 58.4396195,12.9135716 C58.0092978,12.730052 57.4956423,12.636952 56.8970033,12.636952 C55.6654185,12.636952 54.5772023,13.0377023 53.6193388,13.8446695 C52.6453347,14.6652345 51.9221069,15.6917515 51.4472938,16.9289405 C50.9673749,18.1794334 50.7273243,19.5081644 50.7273243,20.917153 L50.7273243,27.1704171 L54.1543104,27.1704171 L54.1543104,31.0411602 L45.9108556,31.1774156 L45.9108556,13.1646417 C45.9108556,12.7507793 45.7479977,12.5951595 45.2995809,12.5951595 L42.3166995,12.5951595 L42.3166995,8.73991866 L47.5354803,8.73991866 C49.5327716,8.73991866 50.6019467,9.67034588 50.6019467,11.4511487 L50.6019467,12.4123244 Z" id="路径" stroke-width="0.658113522"></path>
                        <path d="M90.9364116,5.07250704 L85.9109805,5.07250704 L85.9109805,0.172453401 L90.9364116,0.172453401 L90.9364116,5.07250704 Z" id="路径" stroke-width="0.658113522"></path>
                        <path d="M85.9945655,12.5951595 L82.4004093,12.5951595 L82.4004093,8.73991866 L90.8110341,8.73991866 L90.8110341,27.1704171 L94.2380202,27.1704171 L94.2380202,31.0465542 L85.9945655,31.0465542 L85.9945655,12.5951595 Z" id="路径" stroke-width="0.658113522"></path>
                        <path d="M97.3753331,4.04859046 L93.7811769,4.04859046 L93.7811769,0.172453401 L102.191802,0.172453401 L102.191802,24.3023466 C102.191802,25.2623449 102.343027,25.970207 102.631574,26.4245153 C102.891004,26.83298 103.386765,27.0450396 104.149589,27.0452492 L105.664765,26.9911358 L105.615168,31.0581591 L105.321682,31.0867918 C104.739527,31.1435874 104.115952,31.1719317 103.45086,31.1719317 C102.599279,31.1719317 101.833782,31.073977 101.154561,30.8767839 C100.464716,30.6765063 99.8236773,30.3393126 99.233219,29.866946 C98.6243381,29.3798412 98.1618263,28.6766729 97.8430371,27.7647873 C97.5303143,26.8702549 97.3753331,25.7998031 97.3753331,24.5531017 L97.3753331,4.04859046 Z" id="路径" stroke-width="0.658113522"></path>
                        <path d="M115.505254,31.3544852 L108.073977,12.8584049 L105.209029,12.8584049 L105.209029,9.00316407 L115.771968,9.00316407 L115.771968,12.8584049 L113.03448,12.8584049 L117.722339,25.3277848 C117.786424,25.5414027 117.844481,25.7644823 117.896538,25.9970306 C117.965415,25.7676524 118.040741,25.5379855 118.122582,25.3078407 L122.7432,12.8584049 L120.10806,12.8584049 L120.10806,9.00316407 L130.357556,9.00316407 L130.357556,12.8584049 L127.557412,12.8584049 L119.070938,34.5299375 C118.324204,36.3967716 117.262377,37.8269886 115.885193,38.8127618 C114.50524,39.8005178 112.926654,40.29519 111.159179,40.29519 C110.306785,40.29519 109.475333,40.1795098 108.665711,39.9481891 C107.859207,39.7177595 107.262946,39.4850724 106.867291,39.2415715 L106.060217,38.7334139 L107.764924,34.973031 L108.090623,35.2056735 C108.185736,35.2736112 108.319651,35.3663213 108.491872,35.4834317 C108.635182,35.5808828 108.971085,35.7257819 109.481433,35.9047351 C109.983173,36.0806698 110.486222,36.1682978 110.992009,36.1682978 C111.808783,36.1682978 112.522928,35.918663 113.146771,35.4157692 C113.787026,34.8996454 114.291423,34.2216572 114.65864,33.3824203 L115.505254,31.3544852 Z" id="路径" stroke-width="0.658113522"></path>
                        <path d="M143.966065,31.5689606 C142.728871,31.5689606 141.519496,31.4302381 140.338442,31.1527616 C139.15508,30.8747429 138.066165,30.4713086 137.072389,29.9422481 C136.059282,29.4028961 135.239663,28.6893889 134.617382,27.8035527 C133.986397,26.9053268 133.669494,25.9024229 133.669494,24.8038568 L133.669494,21.3194652 L138.256104,21.3194652 L138.256104,23.8635252 C138.256104,24.8064802 138.77603,25.5619034 139.861155,26.1555303 C140.994012,26.7752699 142.360866,27.0868321 143.966065,27.0868321 C145.683407,27.0868321 147.057297,26.7018774 148.096852,25.9386597 C149.111171,25.1939703 149.613338,24.1578538 149.613338,22.7978161 C149.613338,22.0689934 149.468502,21.4317173 149.180674,20.8816446 C148.896,20.3376022 148.403364,19.8385265 147.696504,19.3869217 C146.954992,18.9131775 146.31872,18.5505709 145.789285,18.2994286 C145.25554,18.0462418 144.405681,17.6973161 143.235482,17.2514217 C142.932687,17.1275513 142.706337,17.038383 142.551905,16.9821564 C141.938417,16.745127 141.43636,16.5498826 141.045646,16.3963878 C140.648915,16.2405292 140.16956,16.0325737 139.606891,15.7723389 C139.034869,15.5077789 138.560236,15.2488881 138.182131,14.9943943 C137.813518,14.7462893 137.410675,14.4529914 136.973342,14.1144112 C136.516739,13.7609124 136.142281,13.3790387 135.851098,12.9683969 C135.571779,12.5744853 135.303801,12.1421472 135.047034,11.671407 C134.779686,11.1812703 134.587379,10.6339356 134.469642,10.0305322 C134.354018,9.43795687 134.296382,8.80395827 134.296382,8.12864387 C134.296382,6.70085889 134.568241,5.43218284 135.113958,4.32619544 C135.660412,3.21871481 136.413952,2.32617322 137.372247,1.65317185 C138.315506,0.990730622 139.373195,0.49426426 140.54374,0.163926351 C141.708992,-0.164917719 142.961444,-0.329056761 144.300405,-0.329056761 C145.478073,-0.329056761 146.617631,-0.219005986 147.718788,0.00122527826 C148.823134,0.222094509 149.82307,0.539931428 150.71823,0.955285406 C151.633082,1.37977681 152.370188,1.9362917 152.925498,2.6248766 C153.494499,3.33043767 153.782022,4.1240024 153.782022,4.99420536 L153.782022,8.87562577 L149.15362,8.87562577 L149.15362,6.45694333 C149.15362,5.77921219 148.712142,5.22955778 147.766614,4.79123349 C146.760044,4.32461133 145.605632,4.09038297 144.300405,4.09038297 C142.818866,4.09038297 141.614343,4.42698949 140.677921,5.09492633 C139.770829,5.74194333 139.321813,6.66509559 139.321813,7.89878505 C139.321813,8.20073561 139.344652,8.48133493 139.390024,8.74060117 C139.432432,8.98293266 139.514093,9.21279356 139.63564,9.43157775 C139.775097,9.68260062 139.900628,9.90925476 140.01224,10.1115503 C140.10014,10.2708703 140.259386,10.4448609 140.492222,10.6286788 C140.762403,10.8419794 140.976871,11.020703 141.136559,11.1658739 C141.263548,11.2813181 141.502915,11.4313215 141.848189,11.6072156 C142.218107,11.7956648 142.490455,11.9353302 142.665586,12.0263987 C142.827414,12.1105488 143.133094,12.2430101 143.576315,12.4202988 C144.025654,12.6000344 144.336431,12.720892 144.505896,12.7818995 C144.683494,12.8458347 145.023101,12.9753756 145.522873,13.1697659 C146.34701,13.4770711 146.986549,13.7217033 147.442123,13.9039331 C147.902774,14.0881935 148.497689,14.3557295 149.228226,14.7069491 C149.96813,15.0626722 150.551239,15.3917887 150.979523,15.696669 C151.402431,15.9977219 151.868879,16.3822749 152.379749,16.8505725 C152.907407,17.3342583 153.313681,17.840255 153.596809,18.3692574 C153.873594,18.8864076 154.108601,19.4938111 154.302825,20.1915786 C154.499115,20.8967689 154.596976,21.654285 154.596976,22.463476 C154.596976,24.3819008 154.103783,26.0500553 153.116417,27.4585031 C152.133589,28.860479 150.844726,29.8995346 149.255564,30.5713164 C147.681107,31.2368824 145.917165,31.5689606 143.966065,31.5689606 Z" id="路径" stroke-width="0.658113522"></path>
                        <path d="M161.86988,21.1249166 C162.046167,23.1753248 162.776402,24.7835749 164.059477,25.9660165 C165.418896,27.2188147 167.05952,27.8431817 168.997857,27.8431817 C169.668534,27.8431817 170.343043,27.7626433 171.021857,27.601341 C171.704412,27.4391497 172.285606,27.2442986 172.764948,27.0179428 C173.256023,26.7860461 173.694772,26.5513663 174.081082,26.3141584 C174.467501,26.0768838 174.760107,25.8784496 174.948105,25.728293 L175.544338,25.2172368 L177.577869,28.8131148 L177.400972,28.9900119 C177.306828,29.0841556 177.172679,29.1996726 176.996407,29.3392212 C176.81642,29.4817114 176.447627,29.7263915 175.879955,30.0811861 C175.308616,30.4382728 174.708826,30.7524489 174.08072,31.0236764 C173.447275,31.2972095 172.64854,31.5432482 171.683019,31.7633303 C170.711794,31.9847124 169.733004,32.0954514 168.747102,32.0954514 C166.462645,32.0954514 164.414524,31.5834211 162.608371,30.5585015 C160.800807,29.5327802 159.402508,28.1308865 158.418693,26.3571484 C157.436753,24.5867893 156.946,22.6058663 156.946,20.4197272 C156.946,16.9378698 157.997426,14.113734 160.101334,11.966742 C162.205396,9.81959312 164.878184,8.74400306 168.099318,8.74400306 C170.152184,8.74400306 171.930948,9.22387236 173.428118,10.185822 C174.92243,11.1459356 176.030458,12.4096672 176.746506,13.9719547 C177.456574,15.5211923 177.810794,17.2744039 177.80937,19.2592197 L177.635238,21.1249166 L161.86988,21.1249166 Z M162.079072,17.8129785 L172.852934,17.8129785 C172.74949,16.2301171 172.265128,15.0032437 171.405324,14.1190486 C170.485477,13.173107 169.362198,12.7037252 168.015733,12.7037252 C166.479153,12.7037252 165.170846,13.1869442 164.07553,14.1568923 C163.061089,15.0552229 162.395509,16.2703705 162.079072,17.8129785 Z" id="形状结合" stroke-width="0.658113522"></path>
                        <path d="M193.81156,28.0052198 C193.714841,28.1371659 193.604806,28.2828093 193.481241,28.4425907 C193.062088,28.984599 192.59537,29.4657889 192.081307,29.8857278 C191.557309,30.3137829 190.852309,30.698989 189.965821,31.0449356 C189.070209,31.3944424 188.106724,31.5689606 187.077441,31.5689606 C185.779495,31.5689606 184.578624,31.3302331 183.477604,30.8521586 C182.361933,30.3677225 181.429778,29.5897035 180.68509,28.5237777 C179.934519,27.4494303 179.560072,26.1645629 179.560072,24.6784792 C179.560072,23.6990366 179.743832,22.805961 180.112444,22.0023865 C180.478606,21.2041537 180.950203,20.5409699 181.527392,20.0155798 C182.096187,19.4978308 182.788986,19.0480558 183.604757,18.6654373 C184.408964,18.2882428 185.186453,17.9993594 185.937394,17.7991085 C186.683738,17.6000834 187.506229,17.4440937 188.405015,17.3308609 C189.297502,17.2184215 190.04403,17.1479943 190.645681,17.1196814 C191.242998,17.0915723 191.864587,17.0775251 192.510467,17.0775251 L193.539667,17.0775251 L193.539667,16.5916279 C193.539667,13.6946457 192.147633,12.3026119 189.250651,12.3026119 C188.270153,12.3026119 187.281737,12.4707097 186.284221,12.8077083 C185.277705,13.1477477 184.521453,13.4853603 184.019376,13.815674 L182.931702,14.5312489 L180.950877,11.0400442 L181.162105,10.8640202 C181.251482,10.7895401 181.377958,10.6919724 181.542859,10.5700895 C181.720637,10.4386879 182.084857,10.2280115 182.649688,9.92772198 C183.212461,9.62852631 183.796498,9.36499745 184.401713,9.13715175 C185.01188,8.9074416 185.783759,8.69757608 186.718951,8.50628665 C187.660138,8.31377121 188.615597,8.21751225 189.584991,8.21751225 C192.423581,8.21751225 194.603182,8.95249401 196.10573,10.4331604 C197.609397,11.9149291 198.356136,14.0717726 198.356136,16.8841754 L198.356136,26.5591423 C198.356136,27.004297 198.522256,27.1704171 198.967411,27.1704171 L201.469678,27.1704171 L201.469678,31.0465542 L196.835992,31.0465542 C194.866161,31.0465542 193.811319,30.1225451 193.811319,28.3562204 L193.811319,28.0636728 C193.811319,28.044151 193.811399,28.0246667 193.81156,28.0052198 Z M193.58146,20.4312557 L192.844807,20.4312557 C192.442966,20.4312557 192.072538,20.4347177 191.733572,20.4416354 C191.402438,20.4483932 190.922557,20.4826704 190.296506,20.5445875 C189.672365,20.6063158 189.114718,20.6850021 188.623882,20.7804425 C188.140333,20.874466 187.610023,21.0264656 187.033463,21.2367402 C186.468884,21.4426456 186.005092,21.6794755 185.641919,21.94537 C185.289769,22.2031945 184.992911,22.5411071 184.750576,22.9620037 C184.515224,23.3707739 184.397436,23.8295255 184.397436,24.3441391 C184.397436,25.2752244 184.715605,26.0596214 185.358589,26.715337 C185.996904,27.366292 186.862371,27.6928235 187.97598,27.6928235 C189.072604,27.6928235 190.049567,27.3552682 190.918171,26.6760589 C191.802026,25.9849242 192.464676,25.1367318 192.909389,24.1278311 C193.357813,23.1105101 193.58146,22.0690524 193.58146,21.000738 L193.58146,20.4312557 Z" id="形状结合" stroke-width="0.658113522"></path>
                        <path d="M209.19485,12.7723795 C209.713281,11.7551875 210.395567,10.8762646 211.241118,10.1376228 C212.513127,9.02644256 214.004042,8.46826733 215.731648,8.46983741 L217.094307,8.60343146 L217.094307,13.4189198 L216.685443,13.3167036 C216.379328,13.2401751 216.008599,13.2011509 215.574164,13.2011509 C214.532053,13.2011509 213.605049,13.4468231 212.786642,13.9378676 C211.9628,14.4321729 211.30889,15.0893688 210.821324,15.9129592 C210.322178,16.7561115 209.947608,17.6739781 209.697528,18.667539 C209.446488,19.6649135 209.3209,20.700166 209.3209,21.7738995 L209.3209,27.1704171 L212.518027,27.1704171 L212.518027,31.0465542 L204.504431,31.0465542 L204.504431,13.2064343 C204.504431,12.7612796 204.338311,12.5951595 203.893156,12.5951595 L200.868482,12.5951595 L200.868482,8.73991866 L206.066367,8.73991866 C207.087656,8.73991866 207.867872,8.9678037 208.396194,9.44009112 C208.933365,9.92029005 209.195522,10.6471795 209.195522,11.5974225 L209.19485,12.7723795 Z" id="路径" stroke-width="0.658113522"></path>
                        <path d="M230.592327,31.5689606 C228.437481,31.5689606 226.456625,31.1077144 224.654123,30.1850046 C222.845239,29.2590285 221.379876,27.8978216 220.262063,26.1064536 C219.141995,24.3114737 218.582263,22.2519455 218.582263,19.9350289 C218.582263,17.704957 219.101969,15.6906468 220.141654,13.8980871 C221.181452,12.1053325 222.603842,10.7080855 224.404343,9.71099536 C226.202301,8.71531326 228.197086,8.21751225 230.383365,8.21751225 C231.080814,8.21751225 231.802308,8.26727044 232.547824,8.36667256 C233.299648,8.46691568 234.068076,8.64561999 234.853032,8.90251462 C235.642193,9.16078557 236.347558,9.47747998 236.968776,9.85310012 C237.609334,10.2404146 238.135964,10.7446341 238.546001,11.3634174 C238.965044,11.9957911 239.175405,12.7033718 239.175405,13.4780856 L239.175405,16.460967 L234.839551,16.460967 L234.839551,14.6273797 C234.839551,14.007753 234.428194,13.5072208 233.540104,13.1097538 C232.586568,12.6829965 231.57713,12.4697819 230.508742,12.4697819 C228.40889,12.4697819 226.722718,13.1455758 225.428511,14.4995154 C224.131518,15.85637 223.482317,17.634182 223.482317,19.8514439 C223.482317,22.1481272 224.177139,23.9566607 225.565601,25.2986189 C226.958878,26.645231 228.684064,27.3166909 230.759497,27.3166909 C232.978266,27.3166909 235.164031,26.4531791 237.347357,24.697235 C237.37265,24.6803729 237.388077,24.6683739 237.391239,24.6652116 C237.437489,24.6189623 237.490814,24.5808731 237.549896,24.551332 L237.839454,24.4065531 L239.693611,27.9684867 L239.507522,28.1390683 C239.161346,28.4563959 238.759312,28.7722802 238.3014,29.0870946 C237.844822,29.4009919 237.239835,29.7618612 236.485161,30.1709369 C235.714227,30.5888263 234.814326,30.9258409 233.785678,31.1830032 C232.756309,31.4403453 231.69166,31.5689606 230.592327,31.5689606 Z" id="路径" stroke-width="0.658113522"></path>
                        <path d="M242.14963,4.04859046 L238.513682,4.04859046 L238.513682,0.172453401 L246.924307,0.172453401 L246.924307,11.7228 C246.924307,11.8947656 246.921096,12.065698 246.914672,12.2355951 C247.052878,12.0388487 247.203547,11.8428725 247.36664,11.6476544 C247.841989,11.0786767 248.419604,10.529763 249.099105,10.0004676 C249.791404,9.46120317 250.621922,9.02962353 251.589181,8.7047977 C252.556714,8.37988016 253.574219,8.21751225 254.640309,8.21751225 C257.263041,8.21751225 259.227007,8.93665934 260.508031,10.387015 C261.780235,11.8273836 262.408433,13.9827519 262.408433,16.8423829 L262.408433,27.1704171 L265.793626,27.1704171 L265.793626,31.0465542 L257.61286,31.0465542 L257.61286,17.8036107 C257.61286,16.9866541 257.558665,16.2888819 257.451242,15.7114834 C257.345808,15.1447764 257.161626,14.6119649 256.898464,14.1119565 C256.653112,13.645788 256.284092,13.2950668 255.782679,13.0536454 C255.266745,12.8052328 254.614843,12.6787445 253.825355,12.6787445 C251.817163,12.6787445 250.17731,13.4244323 248.881772,14.925928 C247.576841,16.4383087 246.924307,18.3189475 246.924307,20.5828129 L246.924307,27.1704171 L250.351293,27.1704171 L250.351293,31.0465542 L242.14963,31.0465542 L242.14963,4.04859046 Z" id="路径" stroke-width="0.658113522"></path>
                    </g>
                </g>
            </g>
        </g>
    </g>
</svg>